<?xml version="1.0" encoding="utf-8"?>
<!-- Generator: Adobe Illustrator 18.1.1, SVG Export Plug-In . SVG Version: 6.00 Build 0)  -->
<svg version="1.1" id="Layer_1" xmlns="http://www.w3.org/2000/svg" xmlns:xlink="http://www.w3.org/1999/xlink" x="0px" y="0px"
	 viewBox="0 0 900 900" enable-background="new 0 0 900 900" xml:space="preserve">
<rect fill="#FFFFFF" width="900" height="900"/>
<rect x="30" y="30" fill="#660033" width="405" height="405"/>
<rect x="465" y="30" fill="#FF9966" width="405" height="405"/>
<rect x="465" y="465" fill="#FFCC00" width="405" height="405"/>
<rect x="30" y="465" fill="#990000" width="405" height="405"/>
<g>
	<path d="M364.7,361.2H294l-89.6-123.8c-6.6,0.3-12,0.4-16.2,0.4c-1.7,0-3.5,0-5.5-0.1c-2-0.1-4-0.2-6.1-0.3v77
		c0,16.7,1.8,27,5.5,31.1c4.9,5.7,12.4,8.6,22.3,8.6h10.4v7.2H101.2V354h10c11.2,0,19.2-3.6,24-10.9c2.7-4,4.1-13.6,4.1-28.7V143.2
		c0-16.7-1.8-27-5.5-31.1c-5.1-5.7-12.6-8.6-22.7-8.6h-10v-7.2h96.5c28.1,0,48.9,2.1,62.2,6.2c13.3,4.1,24.7,11.7,34,22.7
		c9.3,11,14,24.1,14,39.4c0,16.3-5.3,30.4-15.9,42.4c-10.6,12-27.1,20.4-49.3,25.4l54.7,76c12.5,17.5,23.2,29,32.2,34.8
		c9,5.7,20.7,9.4,35.2,10.9V361.2z M176.6,225.1c2.5,0,4.6,0,6.4,0.1c1.8,0.1,3.3,0.1,4.5,0.1c25.3,0,44.3-5.5,57.1-16.4
		c12.8-10.9,19.2-24.9,19.2-41.8c0-16.5-5.2-30-15.5-40.3s-24.1-15.5-41.1-15.5c-7.6,0-17.8,1.2-30.7,3.7V225.1z"/>
</g>
<g>
	<path d="M712.4,272.5H609.9l-18,41.8c-4.4,10.3-6.6,18-6.6,23c0,4,1.9,7.6,5.8,10.6c3.8,3.1,12.1,5,24.9,6v7.2h-83.4V354
		c11.1-2,18.2-4.5,21.5-7.6c6.6-6.2,14-18.9,22.1-38.1l93.2-218h6.8l92.2,220.3c7.4,17.7,14.2,29.2,20.2,34.5s14.5,8.2,25.3,8.9v7.2
		H709.3V354c10.5-0.5,17.7-2.3,21.4-5.3c3.7-3,5.6-6.6,5.6-10.9c0-5.7-2.6-14.8-7.8-27.1L712.4,272.5z M706.9,258.1l-44.9-107
		l-46.1,107H706.9z"/>
</g>
<g>
	<path d="M293.4,525.3v91.6h-7.2c-2.3-17.6-6.5-31.6-12.6-42c-6.1-10.4-14.7-18.7-25.9-24.8c-11.2-6.1-22.8-9.2-34.8-9.2
		c-13.5,0-24.7,4.1-33.6,12.4c-8.9,8.3-13.3,17.7-13.3,28.2c0,8.1,2.8,15.4,8.4,22.1c8.1,9.8,27.3,22.8,57.6,39.1
		c24.7,13.3,41.6,23.5,50.7,30.6c9,7.1,16,15.5,20.9,25.1c4.9,9.6,7.3,19.7,7.3,30.3c0,20.1-7.8,37.3-23.3,51.9
		c-15.6,14.5-35.6,21.8-60.1,21.8c-7.7,0-14.9-0.6-21.7-1.8c-4-0.7-12.4-3-25.1-7.1s-20.7-6.2-24.1-6.2c-3.3,0-5.8,1-7.7,2.9
		c-1.9,2-3.3,6-4.2,12.1h-7.2v-90.8h7.2c3.4,19,7.9,33.2,13.7,42.7c5.7,9.4,14.5,17.3,26.3,23.5c11.8,6.2,24.7,9.4,38.8,9.4
		c16.3,0,29.1-4.3,38.6-12.9c9.4-8.6,14.2-18.8,14.2-30.5c0-6.5-1.8-13.1-5.4-19.7c-3.6-6.6-9.1-12.8-16.7-18.6
		c-5.1-3.9-18.9-12.2-41.6-24.9s-38.8-22.8-48.3-30.4c-9.6-7.6-16.8-15.9-21.8-25c-5-9.1-7.4-19.1-7.4-30.1c0-19,7.3-35.4,21.9-49.1
		c14.6-13.7,33.1-20.6,55.7-20.6c14.1,0,29,3.5,44.7,10.4c7.3,3.3,12.4,4.9,15.4,4.9c3.4,0,6.2-1,8.3-3c2.1-2,3.9-6.1,5.2-12.2
		H293.4z"/>
</g>
<g>
	<path d="M770.2,525.3l6.1,90h-6.1c-8.1-27-19.6-46.4-34.6-58.2c-15-11.8-32.9-17.8-53.9-17.8c-17.6,0-33.5,4.5-47.7,13.4
		c-14.2,8.9-25.4,23.1-33.5,42.7c-8.1,19.5-12.2,43.8-12.2,72.9c0,24,3.8,44.7,11.5,62.3c7.7,17.6,19.2,31.1,34.7,40.4
		s33,14.1,52.8,14.1c17.2,0,32.4-3.7,45.5-11c13.1-7.4,27.6-22,43.4-43.8l6.1,3.9c-13.3,23.6-28.8,40.8-46.5,51.8
		c-17.7,10.9-38.7,16.4-63.1,16.4c-43.9,0-77.9-16.3-102-48.8c-18-24.2-27-52.7-27-85.5c0-26.4,5.9-50.7,17.8-72.9
		c11.8-22.1,28.2-39.3,48.9-51.5c20.8-12.2,43.5-18.3,68.1-18.3c19.1,0,38,4.7,56.6,14.1c5.5,2.9,9.4,4.3,11.7,4.3
		c3.5,0,6.6-1.2,9.2-3.7c3.4-3.5,5.8-8.4,7.2-14.6H770.2z"/>
</g>
</svg>
