<?xml version="1.0" encoding="utf-8"?>
<!-- Generator: Adobe Illustrator 18.1.1, SVG Export Plug-In . SVG Version: 6.00 Build 0)  -->
<svg version="1.1" id="Layer_1" xmlns="http://www.w3.org/2000/svg" xmlns:xlink="http://www.w3.org/1999/xlink" x="0px" y="0px"
	 viewBox="0 0 360 126" enable-background="new 0 0 360 126" xml:space="preserve">
<g>
	<path fill="#FFFFFF" d="M148.6,25.5c0-0.3,0.1-0.4,0.4-0.4c0.6,0,2.5,0.2,7.1,0.2c4.9,0,7.6-0.2,8.1-0.2c0.5,0,0.6,0.2,0.6,0.4v1.3
		c0,0.3-0.1,0.5-0.5,0.5h-2.8c-1.6,0-2.5,0.5-2.5,1.5c0,0.5,0.1,1.2,0.2,2c0.4,2.1,2.5,9.1,3.6,12.4c0.7,2.2,4.1,12.3,5.5,15.9h0.1
		c1.2-2.8,5.8-14.9,6.3-16.2c0.6-1.6,2.8-8.3,3.7-10.9c0.5-1.5,0.8-2.5,0.8-3.3c0-0.7-0.4-1.4-1.9-1.4h-1.5c-0.2,0-0.3-0.2-0.3-0.5
		v-1.3c0-0.3,0.1-0.4,0.4-0.4c0.5,0,3.2,0.2,6.9,0.2c4.3,0,5.8-0.2,6.3-0.2c0.4,0,0.4,0.1,0.4,0.4v1.5c0,0.2-0.1,0.4-0.4,0.4h-1.6
		c-1.9,0-3.1,0.9-4.2,2.3c-1.5,1.9-6.2,13.9-7.2,16.4c-0.7,1.9-8.3,20.6-8.6,21.2c-0.2,0.5-0.5,0.8-0.8,0.8c-0.5,0-0.7-0.6-1-1.3
		c-1.9-5.4-6.6-18.8-7.4-20.9l-0.6-2c-1.4-4.2-4.2-12.7-4.9-14.4c-0.6-1.4-1.2-1.9-2.4-1.9h-1.5c-0.2,0-0.3-0.2-0.3-0.4V25.5z"/>
	<path fill="#FFFFFF" d="M185.4,49.7c0-2-0.4-3.1-3.3-3.5c-0.4-0.1-0.5-0.2-0.5-0.4v-0.5c0-0.2,0.1-0.3,0.4-0.4
		c1.9-0.7,4.1-1.6,6.3-2.9c0.5-0.2,0.8-0.4,1.1-0.4c0.3,0,0.4,0.3,0.3,0.7c-0.1,1-0.1,4.7-0.1,9.6v6.4c0,2.3,0,4.4,0.1,5.1
		c0.1,1.1,0.3,1.5,0.9,1.5h2.7c0.5,0,0.6,0.2,0.6,0.5v1c0,0.4-0.1,0.6-0.5,0.6c-0.5,0-3.2-0.2-5.6-0.2c-3.4,0-5.7,0.2-6.3,0.2
		c-0.3,0-0.5-0.1-0.5-0.5v-1.2c0-0.4,0.2-0.5,0.6-0.5h2.9c0.6,0,0.9-0.2,0.9-1.2c0.1-1.8,0.1-3.6,0.1-5.3L185.4,49.7z"/>
	<path fill="#FFFFFF" d="M184.1,36c0-1.5,1.2-3.1,3.6-3.1c2.1,0,3.1,1.6,3.1,2.9c0,1.5-1.1,3.2-3.4,3.2
		C186,39.1,184.1,37.9,184.1,36"/>
	<path fill="#FFFFFF" d="M284.4,49.7c0-2-0.4-3.1-3.3-3.5c-0.4-0.1-0.5-0.2-0.5-0.4v-0.5c0-0.2,0.1-0.3,0.4-0.4
		c1.9-0.7,4.1-1.6,6.3-2.9c0.5-0.2,0.8-0.4,1.1-0.4c0.3,0,0.4,0.3,0.3,0.7c-0.1,1-0.1,4.7-0.1,9.6v6.4c0,2.3,0,4.4,0.1,5.1
		c0.1,1.1,0.3,1.5,0.9,1.5h2.7c0.5,0,0.6,0.2,0.6,0.5v1c0,0.4-0.1,0.6-0.5,0.6c-0.5,0-3.2-0.2-5.6-0.2c-3.4,0-5.7,0.2-6.3,0.2
		c-0.3,0-0.5-0.1-0.5-0.5v-1.2c0-0.4,0.2-0.5,0.6-0.5h2.9c0.6,0,0.9-0.2,0.9-1.2c0.1-1.8,0.1-3.6,0.1-5.3L284.4,49.7z"/>
	<path fill="#FFFFFF" d="M283.1,36c0-1.5,1.2-3.1,3.6-3.1c2.1,0,3.1,1.6,3.1,2.9c0,1.5-1.1,3.2-3.4,3.2
		C285.1,39.1,283.1,37.9,283.1,36"/>
	<path fill="#FFFFFF" d="M202.7,59.5c0,4.4,2,5.2,3.1,5.2c1.4,0,3.1-0.2,3.9-0.8c0.3-0.2,0.5-0.1,0.7,0.1l0.3,0.5
		c0.2,0.2,0.1,0.5-0.1,0.6c-0.6,0.6-3,2.4-6.5,2.4c-2.9,0-5.7-2.8-5.7-5c0-2.4,0.2-7.6,0.2-8.4v-1.3c0-1.1,0.1-5,0.1-7.5H195
		c-0.5,0-0.9-0.2-0.9-0.7c0-0.5,0.4-0.6,1.1-1.1c1.4-0.8,5.9-5.4,6.7-7.4c0.2-0.5,0.5-0.6,0.8-0.6c0.5,0,0.6,0.4,0.6,0.9l-0.3,5.8
		h8.2c0.3,0,0.5,0.3,0.4,0.5l-0.6,2.1c-0.1,0.3-0.2,0.5-0.5,0.5l-7.6,0c-0.1,2.7-0.2,5.5-0.2,8.2V59.5z"/>
	<path fill="#FFFFFF" d="M226.4,49.4c1.1,0,1.6-0.3,1.6-0.8c0-1.4-0.7-5.2-4.5-5.2c-2.6,0-5,1.7-6.2,6L226.4,49.4z M217,51.2
		c-0.1,0.5-0.2,1.5-0.2,2.8c0,5.8,3.6,10.1,8.3,10.1c3.6,0,6.1-2.1,7.1-4c0.1-0.2,0.4-0.4,0.5-0.3l0.8,0.4c0.2,0.1,0.3,0.2,0,0.9
		c-1.1,2.4-4.1,6.4-9.3,6.4c-3.3,0-7-1-9.2-4.2c-2.1-3-2.6-5.2-2.6-9.3c0-2.3,0.6-6.2,3.7-9.3c2.5-2.6,5.5-3.1,8.4-3.1
		c6.8,0,8.6,6.3,8.6,8.6c0,0.8-0.7,0.9-1.6,0.9L217,51.2z"/>
	<path fill="#FFFFFF" d="M239.8,51.2c0-3-0.5-3.6-2.1-4.5l-1.1-0.6c-0.3-0.1-0.5-0.2-0.5-0.4v-0.4c0-0.2,0.1-0.3,0.5-0.5l5.8-3
		c0.4-0.2,0.6-0.2,0.8-0.2c0.4,0,0.4,0.4,0.4,0.7l0.3,4.1h0.2c1.8-2.7,4.5-5.1,7-5.1c2,0,3,1.2,3,2.6c0,1.7-1.4,2.9-2.5,2.9
		c-0.6,0-1.2-0.2-1.7-0.5c-0.5-0.3-1.2-0.5-1.9-0.5c-0.9,0-2.5,0.6-3.5,2.5c-0.3,0.6-0.6,1.7-0.6,1.9v12.3c0,1.8,0.4,2.4,1.6,2.4
		h2.8c0.4,0,0.4,0.2,0.4,0.5v1.1c0,0.4-0.1,0.5-0.3,0.5c-0.4,0-3.1-0.2-6.2-0.2c-3.6,0-6.1,0.2-6.5,0.2c-0.2,0-0.3-0.1-0.3-0.6v-1
		c0-0.4,0.1-0.5,0.6-0.5h2.3c0.9,0,1.3-0.4,1.3-1.1c0.1-1.9,0.1-4,0.1-7V51.2z"/>
	<path fill="#FFFFFF" d="M260.8,54.2c0,4.9,0.2,6.6,0.9,8.5c0.6,1.4,3.1,2.9,5.6,2.9c3.5,0,7.9-2.4,7.9-10.1c0-5.7-3-11.1-8.7-11.1
		c-2.2,0-4.3,0.8-5.6,2.1L260.8,54.2z M256.6,35.2c0-3.9-0.6-4.8-2.8-5.5l-0.6-0.2c-0.6-0.2-0.8-0.3-0.8-0.5v-0.5
		c0-0.2,0.1-0.3,0.5-0.5c1.7-0.8,4.8-2.3,6.2-3.2c0.4-0.3,0.9-0.5,1.2-0.5c0.4,0,0.5,0.3,0.5,1c-0.1,0.5-0.1,7.2-0.1,12.4v6.8
		c1.9-1.8,5.2-2.9,8.1-2.9c5.2,0,10.8,4.2,10.8,12.6c0,6.9-5.5,13.3-12.2,13.3c-3.3,0-5.6-0.7-6.9-1.5l-2.4,1.3
		c-0.2,0.2-0.4,0.2-0.8,0.2l-0.7-0.2c-0.2-0.1-0.3-0.2-0.2-0.5c0.1-0.8,0.1-5.7,0.1-10L256.6,35.2z"/>
	<path fill="#FFC425" d="M40.4,30.1c0-2-0.5-3-2-3h-2.7c-0.4,0-0.5-0.1-0.5-0.5v-1.4c0-0.4,0.1-0.5,0.6-0.5c0.6,0,3.4,0.2,9.2,0.2
		c5,0,7.8-0.2,8.6-0.2c0.4,0,0.5,0.1,0.5,0.4v1.5c0,0.4-0.1,0.5-0.5,0.5h-2.5c-1.8,0-2.9,1.1-2.9,2.3c-0.1,0.7-0.2,4.3-0.2,7.7v7.4
		c0,3,0.1,7.2,0.2,9.1c0.2,2.7,0.7,5.5,2.1,7.4c2,2.7,5.2,3.7,8.1,3.7c2.7,0,6.1-1.1,8-2.9c2.3-2.3,3.5-5.7,3.5-10V41.1
		c0-4.8-0.5-10-0.7-11.4c-0.2-1.5-1.1-2.6-2.4-2.6h-2.1c-0.4,0-0.5-0.2-0.5-0.4v-1.5c0-0.4,0.1-0.5,0.5-0.5c0.6,0,3.3,0.2,7.3,0.2
		c3.7,0,5.6-0.2,6.1-0.2c0.5,0,0.6,0.2,0.6,0.5v1.4c0,0.4-0.1,0.5-0.4,0.5h-2.1c-2.1,0-2.4,1.7-2.5,2.3c-0.1,0.7-0.1,9-0.1,9.8
		c0,0.8-0.1,11.2-0.4,13.6c-0.4,4.9-1.8,8.6-5,11.4c-2.5,2.3-6.3,3.7-10.8,3.7c-2.9,0-6.3-0.5-8.6-1.4c-3.4-1.4-5.8-4.2-7-8
		c-0.8-2.6-1.1-6.5-1.1-14.3V30.1z"/>
	<path fill="#FFC425" d="M80,53.7c0.2,0,0.4,0.1,0.4,0.5c0.1,1.9,0.6,4.2,2.3,6.8c1.8,2.9,4.9,4.3,7.8,4.3c3.2,0,7.7-2,7.7-7
		c0-5.5-2.5-7.2-8.8-9.6c-1.9-0.7-5.8-2.4-8.7-5c-2-1.9-3-4.9-3-8.5c0-3.3,1.3-6.1,4.2-8.3c2.4-2,5-2.9,8.4-2.9c3.9,0,6.3,1,7.5,1.4
		c0.6,0.2,1,0.1,1.2-0.2l0.8-0.8c0.2-0.2,0.5-0.4,0.8-0.4c0.4,0,0.5,0.4,0.5,1c0,0.9,1,9.3,1,9.9c0,0.2-0.1,0.4-0.4,0.4l-1,0.3
		c-0.2,0.1-0.5,0-0.6-0.4c-0.6-1.7-1.5-4-3.7-6.3c-1.5-1.7-3.4-2.5-6.2-2.5c-4.8,0-6.7,3.8-6.7,6c0,2,0.2,3.8,1.7,5.3
		c1.5,1.5,4.9,3,7.3,3.7c3.4,1.1,6.3,2.3,8.6,4.6c1.9,2,3,4.5,3,8.5c0,7.3-4.8,13.2-12.6,13.2c-4.9,0-7.7-1.1-10.1-2.9
		c-0.7-0.5-1.1-0.7-1.4-0.7c-0.4,0-0.6,0.5-1,1.1c-0.4,0.6-0.6,0.7-1.1,0.7c-0.5,0-0.7-0.4-0.7-1c0.1-0.7,1-10.3,1.1-11.1
		c0.1-0.4,0.1-0.5,0.4-0.5L80,53.7z"/>
	<path fill="#FFC425" d="M144.8,57.3c0.2,0.2,0.2,0.4,0.1,0.6c-3.6,5.1-9.3,10-17.7,10c-7.6,0-11.9-2.3-15.6-5.6
		c-4.4-3.9-6.4-10.8-6.4-16.1c0-5.8,1.9-11.4,6.1-15.9c3.2-3.4,8.3-6.3,15.5-6.3c5.5,0,9.9,1.7,12,2.9c0.8,0.5,1.1,0.5,1.2,0
		l0.5-1.5c0.1-0.4,0.2-0.4,1-0.4c0.7,0,0.8,0.1,0.8,1c0,1.1,1.2,10.6,1.4,12.4c0.1,0.4,0,0.5-0.2,0.6l-1.1,0.4
		c-0.3,0.1-0.5-0.1-0.7-0.6c-0.7-2.1-2.1-5.1-4.6-7.7c-2.6-2.5-5.7-4.4-10.3-4.4c-9.5,0-13.4,8.6-13.4,17.1c0,3.7,1.1,10.7,5.5,15.5
		c3.9,4.2,7.4,4.6,10.2,4.6c6.5,0,11.7-3.3,14.2-6.9c0.3-0.4,0.5-0.6,0.7-0.4L144.8,57.3z"/>
</g>
<g>
	<path fill="#FFFFFF" d="M156.3,96.1c-0.2-0.2-0.3-0.2-0.4-0.2c-0.1,0-0.2,0.1-0.3,0.3c-0.1,0.2-0.2,0.2-0.3,0.2
		c-0.1,0-0.2-0.1-0.2-0.3c0.1-0.5,0.3-2.9,0.3-3.4c0-0.1,0.1-0.1,0.1-0.1l0.3,0c0.1,0,0.1,0,0.1,0.2c0,0.6,0.1,1.2,0.7,2.2
		c0.6,0.9,1.6,1.4,2.7,1.4c1.1,0,2.6-0.7,2.6-2.4c0-2-1.4-2.7-2.9-3.2c-0.6-0.2-2-0.7-2.8-1.5c-0.6-0.6-1-1.5-1-2.8
		c0-0.9,0.6-1.9,1.2-2.4C157,83.3,158,83,159,83c1.1,0,1.9,0.3,2.2,0.5c0.2,0.1,0.3,0.1,0.4,0l0.2-0.2c0.1-0.1,0.2-0.1,0.2-0.1
		c0.1,0,0.2,0.2,0.2,0.3c0,0.7,0.2,2.6,0.3,3c0,0.1,0,0.1-0.1,0.2l-0.2,0.1c-0.1,0-0.1,0-0.1-0.1c-0.2-0.6-0.4-1.3-1.2-2.1
		c-0.5-0.6-1.2-0.8-2.1-0.8c-1.7,0-2.3,1.3-2.3,2.2c0,0.5,0.1,1.2,0.6,1.7c0.6,0.6,1.6,1,2.2,1.1c1.3,0.4,2.4,0.7,3.1,1.6
		c0.5,0.6,0.8,1.3,0.8,2.6c0,2.2-1.4,4.2-3.9,4.2C158,97.1,157.1,96.7,156.3,96.1z"/>
	<path fill="#FFFFFF" d="M165.7,92.2c0,1,0.5,2.2,1,2.9c0.6,0.8,1.4,1,2.1,1c1,0,1.4-0.2,2.1-0.8c0,0,0.1-0.1,0.2,0l0.2,0.2
		c0.1,0.1,0.1,0.1,0,0.2c-0.6,0.6-1.8,1.3-3.1,1.3c-1,0-2.1-0.2-2.9-1.3c-0.7-0.9-0.9-1.7-0.9-2.6c0-2.2,1.6-4.5,4.1-4.5
		c2,0,2.6,1.1,2.6,1.5c0,0.4-0.3,0.7-0.7,0.7c-0.4,0-0.8-0.2-1-0.8c-0.4-0.8-0.8-0.8-1.3-0.8C166.9,89.2,165.7,90.2,165.7,92.2z"/>
	<path fill="#FFFFFF" d="M173.2,86.4c0-1.2-0.2-1.4-0.9-1.6l-0.3-0.1c-0.1,0-0.1-0.1-0.1-0.1v-0.2c0-0.1,0.1-0.1,0.2-0.2l2-1
		c0.2-0.1,0.3-0.2,0.4-0.2c0.1,0,0.2,0.2,0.2,0.5c0,0.3-0.1,4.2-0.1,5.1v1.2h0.1c0.7-0.8,1.8-1.2,2.6-1.2c0.8,0,1.3,0.2,1.9,0.8
		c0.9,0.8,0.8,1.8,0.8,2.8v1.1c0,1.1,0,2.2,0,2.6c0,0.2,0.3,0.3,0.7,0.3h0.3c0.2,0,0.2,0,0.2,0.2v0.3c0,0.2,0,0.2-0.2,0.2
		c-0.1,0-0.7-0.1-1.8-0.1c-0.9,0-1.6,0.1-1.8,0.1c-0.1,0-0.2-0.1-0.2-0.2v-0.3c0-0.1,0-0.2,0.1-0.2h0.4c0.3,0,0.7,0,0.7-0.4
		c0-0.3,0-1.3,0-1.9v-1.5c0-1.1-0.1-1.8-0.6-2.3c-0.4-0.4-0.8-0.5-1.3-0.5c-0.6,0-1.2,0.2-1.8,0.8c-0.2,0.2-0.4,0.6-0.4,0.9v4.1
		c0,0.6,0.1,0.8,0.4,0.8h0.6c0.1,0,0.2,0,0.2,0.2v0.3c0,0.1,0,0.2-0.2,0.2c-0.2,0-0.9-0.1-1.8-0.1c-0.9,0-1.7,0.1-1.8,0.1
		c-0.1,0-0.1-0.1-0.1-0.2v-0.3c0-0.1,0.1-0.2,0.3-0.2h0.4c0.3,0,0.6-0.1,0.6-0.3c0.1-0.4,0.1-2.5,0.1-3.7V86.4z"/>
	<path fill="#FFFFFF" d="M183.3,95.7c-0.9-1-1-1.7-1-3.1c0-1,0.5-2.2,1.6-3.1c1-0.8,1.9-0.9,2.5-0.9c1,0,2.1,0.5,2.7,1.1
		c0.9,0.9,1.3,1.9,1.3,3.1c0,2.1-1.9,4.2-4.2,4.2C185.3,97,184.1,96.6,183.3,95.7z M188.8,92.6c0-2.1-1.5-3.4-2.5-3.4
		c-0.5,0-1,0.1-1.5,0.6c-0.7,0.8-1,1.5-1,3c0,1.1,0.1,1.8,0.7,2.7c0.4,0.6,1,1,1.9,1C187.9,96.4,188.8,94.7,188.8,92.6z"/>
	<path fill="#FFFFFF" d="M192.8,95.7c-0.9-1-1-1.7-1-3.1c0-1,0.5-2.2,1.6-3.1c1-0.8,1.9-0.9,2.5-0.9c1,0,2.1,0.5,2.7,1.1
		c0.9,0.9,1.3,1.9,1.3,3.1c0,2.1-1.9,4.2-4.2,4.2C194.8,97,193.6,96.6,192.8,95.7z M198.3,92.6c0-2.1-1.5-3.4-2.5-3.4
		c-0.5,0-1,0.1-1.5,0.6c-0.7,0.8-1,1.5-1,3c0,1.1,0.1,1.8,0.7,2.7c0.4,0.6,1,1,1.9,1C197.3,96.4,198.3,94.7,198.3,92.6z"/>
	<path fill="#FFFFFF" d="M203.7,91.1c0,1,0,3.9,0,4.4c0,0.3,0.1,0.6,0.5,0.6h0.9c0.2,0,0.2,0.1,0.2,0.2v0.3c0,0.1,0,0.2-0.1,0.2
		c-0.1,0-1-0.1-2.1-0.1c-1.2,0-2,0.1-2.1,0.1c-0.1,0-0.1-0.1-0.1-0.2v-0.3c0-0.1,0-0.2,0.2-0.2h0.9c0.2,0,0.4-0.1,0.4-0.5
		c0-0.6,0-3.9,0-5v-1.2c0-1.3,0-3.1-0.1-3.6c0-0.6-0.3-0.9-0.9-1.1l-0.4-0.1c-0.1,0-0.1-0.1-0.1-0.1v-0.2c0-0.1,0.1-0.1,0.2-0.1
		c0.7-0.3,1.5-0.6,2.2-1.1c0.2-0.1,0.3-0.2,0.4-0.2c0.1,0,0.2,0.1,0.2,0.3c0,1-0.1,5-0.1,6V91.1z"/>
	<path fill="#FFFFFF" d="M211.2,95.7c-0.9-1-1-1.7-1-3.1c0-1,0.5-2.2,1.6-3.1c1-0.8,1.9-0.9,2.5-0.9c1,0,2.1,0.5,2.7,1.1
		c0.9,0.9,1.3,1.9,1.3,3.1c0,2.1-1.9,4.2-4.2,4.2C213.2,97,212,96.6,211.2,95.7z M216.7,92.6c0-2.1-1.5-3.4-2.5-3.4
		c-0.5,0-1,0.1-1.5,0.6c-0.7,0.8-1,1.5-1,3c0,1.1,0.1,1.8,0.7,2.7c0.4,0.6,1,1,1.9,1C215.7,96.4,216.7,94.7,216.7,92.6z"/>
	<path fill="#FFFFFF" d="M221,89.8h-1.3c-0.1,0-0.1,0-0.1-0.2l0.1-0.6c0-0.1,0.1-0.1,0.2-0.1h1.1v-0.4c0-1.9,0.5-3.1,1.3-4
		c1-1.1,2.1-1.5,3.1-1.5c0.9,0,1.7,0.3,1.7,1.1c0,0.5-0.5,0.8-0.8,0.8c-0.2,0-0.4,0-0.5-0.1c-0.2-0.1-0.4-0.3-0.5-0.4
		c-0.2-0.3-0.5-0.4-0.9-0.4c-0.5,0-1,0.1-1.4,0.7c-0.7,0.9-0.7,2.5-0.7,3.9v0.4h2.3c0.1,0,0.2,0.1,0.1,0.2l-0.1,0.6
		c0,0.1-0.1,0.1-0.2,0.1h-2.1v1.7c0,2.2,0,4,0,4.2c0,0.3,0.1,0.5,0.5,0.5h1.1c0.2,0,0.2,0,0.2,0.2v0.3c0,0.2,0,0.2-0.1,0.2
		c-0.1,0-0.8-0.1-2.3-0.1c-1,0-2,0.1-2.2,0.1c-0.1,0-0.2,0-0.2-0.1v-0.4c0-0.1,0-0.1,0.2-0.1h0.9c0.4,0,0.4-0.2,0.5-0.7v-3.6V89.8z"
		/>
	<path fill="#FFFFFF" d="M234.2,89.5c0.2,0,2.2-0.1,2.4-0.1c0.6-0.1,0.7-0.2,0.9-0.8c0.1-0.2,0.1-0.6,0.2-0.9c0-0.1,0.1-0.1,0.1-0.1
		l0.5,0c0.1,0,0.1,0.1,0.1,0.2c-0.1,0.3-0.1,1.9-0.1,2.2c0,0.7,0.1,1.6,0.1,2c0,0.1,0,0.1-0.1,0.2l-0.4,0.1c-0.1,0-0.1,0-0.2-0.2
		c0-0.2-0.2-0.7-0.2-0.9c-0.1-0.4-0.3-0.7-0.8-0.7c-0.9-0.1-2.2-0.1-2.5-0.1v1.2c0,1,0,2.9,0,3.2c0,1,0.5,1.4,1.1,1.5
		c0.4,0.1,0.9,0.1,1.4,0.1c0.3,0,1.3,0,1.7-0.1c0.3,0,1.2-0.2,1.7-0.7c0.2-0.2,1.3-1.6,1.6-2c0.1-0.1,0.1-0.2,0.2-0.1l0.3,0.2
		c0.1,0.1,0.1,0.1,0,0.3l-1,2.8c-0.1,0.2-0.2,0.3-0.4,0.3c-0.1,0-0.5,0-1.7,0c-1.1,0-3,0-5.9,0c-0.7,0-1.2,0-1.6,0
		c-0.4,0-0.6,0-0.8,0c-0.1,0-0.2,0-0.2-0.1v-0.5c0-0.1,0.1-0.1,0.2-0.1h0.8c0.9,0,0.9-0.1,0.9-0.8v-4.5v-1.9c0-1.6,0-4-0.1-4.1
		c-0.1-0.6-0.3-0.7-1-0.7h-0.7c-0.1,0-0.2,0-0.2-0.1v-0.5c0-0.1,0-0.1,0.1-0.1c0.4,0,1.1,0.1,2.3,0.1h0.8c1.9,0,3.8,0,5.6,0
		c0.3,0,0.7,0,0.8,0s0.1,0,0.2,0.1c0.1,0.3,0.9,2.9,1,3.1c0,0.1,0,0.1-0.1,0.2l-0.3,0.2c-0.1,0-0.1,0-0.2-0.1c0-0.1-1.4-1.9-1.9-2.2
		c-0.4-0.3-0.9-0.5-1.4-0.5l-3.4-0.1V89.5z"/>
	<path fill="#FFFFFF" d="M250.3,95.7c0,0.3,0.2,0.4,0.4,0.4h0.6c0.2,0,0.2,0.1,0.2,0.2v0.3c0,0.1,0,0.2-0.2,0.2
		c-0.1,0-0.7-0.1-1.8-0.1c-1,0-1.6,0.1-1.7,0.1c-0.1,0-0.2-0.1-0.2-0.2v-0.3c0-0.1,0.1-0.2,0.2-0.2h0.6c0.2,0,0.4-0.1,0.4-0.4
		c0-0.5,0-1.1,0-1.6v-2.5c0-0.8,0-1.3-0.6-1.7c-0.5-0.3-0.9-0.3-1.4-0.3c-0.3,0-1,0.1-1.5,0.7c-0.4,0.4-0.4,0.9-0.4,1.3v3.9
		c0,0.5,0.1,0.6,0.5,0.6h0.5c0.2,0,0.2,0.1,0.2,0.2v0.3c0,0.1,0,0.2-0.1,0.2c-0.1,0-0.6-0.1-1.7-0.1c-1,0-1.6,0.1-1.7,0.1
		c-0.1,0-0.1-0.1-0.1-0.2v-0.3c0-0.1,0-0.2,0.2-0.2h0.6c0.2,0,0.4-0.1,0.4-0.4v-4.4c0-0.6-0.3-0.9-0.8-1.1l-0.2-0.1
		c-0.1-0.1-0.2-0.1-0.2-0.2v-0.1c0-0.1,0.1-0.2,0.2-0.2l1.6-0.9c0.2-0.1,0.3-0.1,0.3-0.1c0.1,0,0.1,0.1,0.2,0.2L245,90h0
		c0.6-0.7,1.7-1.4,2.6-1.4c0.6,0,1.2,0.1,1.6,0.4c0.6,0.4,1,1.3,1,1.8V95.7z"/>
	<path fill="#FFFFFF" d="M253.1,101.3c-0.7-0.4-1-0.9-1-1.5c0-1.1,1.1-1.9,2-2.3v-0.1c-0.8-0.2-1.3-0.8-1.3-1.3c0-0.9,1-1.6,1.7-1.8
		v0c-0.7-0.3-1.8-1.2-1.8-2.9c0-1.2,1.1-2.8,3.2-2.8c1.4,0,2.2,0.9,2.4,1.1c0.5-0.4,1.2-0.7,1.8-0.7c0.6,0,0.9,0.4,0.9,0.8
		c0,0.4-0.3,0.7-0.7,0.7c-0.3,0-0.5-0.2-0.7-0.3c-0.1-0.1-0.2-0.2-0.4-0.2c-0.1,0-0.4,0-0.6,0.1c0.2,0.4,0.3,0.8,0.3,1.4
		c0,0.7-0.2,1.5-0.7,2.1c-0.5,0.6-1.6,1-2.2,1c-0.4,0-0.7,0-1-0.1c-0.4,0.2-1,0.5-1,1.1c0,0.8,1,0.7,2.2,0.6
		c1.6-0.1,2.5,0.1,3.3,0.7c0.8,0.6,0.9,1.4,0.9,1.8c0,0.9-0.3,1.6-1.3,2.3c-0.5,0.4-1.6,0.9-3.2,0.9
		C255.1,101.9,254,101.8,253.1,101.3z M259.4,99.4c0-1.1-0.9-2-2.8-1.8l-1.8,0.1c-0.6,0.2-1.5,0.8-1.5,1.8c0,0.5,0.4,1,0.7,1.3
		c0.6,0.4,1.3,0.5,2.7,0.5C257.4,101.3,259.5,100.8,259.4,99.4z M257.6,91.3c0-0.8-0.2-1.3-0.5-1.7c-0.2-0.2-0.6-0.4-0.9-0.4
		c-0.4,0-0.9,0.1-1.3,0.5c-0.6,0.6-0.7,1.5-0.7,2.2c0,0.6,0.2,1.2,0.6,1.7c0.3,0.3,0.7,0.5,1.1,0.5
		C257.2,94.1,257.6,92.5,257.6,91.3z"/>
	<path fill="#FFFFFF" d="M263,91.2c0-0.6-0.1-1-1.1-1.1c-0.1,0-0.2-0.1-0.2-0.1v-0.2c0-0.1,0-0.1,0.1-0.1c0.6-0.2,1.3-0.5,2.1-0.9
		c0.2-0.1,0.2-0.1,0.4-0.1c0.1,0,0.1,0.1,0.1,0.2c0,0.3,0,1.5,0,3.1V94c0,0.7,0,1.4,0,1.6c0,0.4,0.1,0.5,0.3,0.5h0.9
		c0.2,0,0.2,0.1,0.2,0.2v0.3c0,0.1,0,0.2-0.2,0.2c-0.2,0-1-0.1-1.8-0.1c-1.1,0-1.8,0.1-2.1,0.1c-0.1,0-0.2,0-0.2-0.2v-0.4
		c0-0.1,0.1-0.2,0.2-0.2h0.9c0.2,0,0.3-0.1,0.3-0.4c0-0.6,0-1.2,0-1.7V91.2z M262.2,85.4c0-0.5,0.4-1,1.2-1c0.7,0,1,0.5,1,0.9
		c0,0.5-0.3,1-1.1,1C262.8,86.4,262.2,86.1,262.2,85.4z"/>
	<path fill="#FFFFFF" d="M274.7,95.7c0,0.3,0.2,0.4,0.4,0.4h0.6c0.2,0,0.2,0.1,0.2,0.2v0.3c0,0.1,0,0.2-0.2,0.2
		c-0.1,0-0.7-0.1-1.8-0.1c-1,0-1.6,0.1-1.7,0.1c-0.1,0-0.2-0.1-0.2-0.2v-0.3c0-0.1,0.1-0.2,0.2-0.2h0.6c0.2,0,0.4-0.1,0.4-0.4
		c0-0.5,0-1.1,0-1.6v-2.5c0-0.8,0-1.3-0.6-1.7c-0.5-0.3-0.9-0.3-1.4-0.3c-0.3,0-1,0.1-1.5,0.7c-0.4,0.4-0.4,0.9-0.4,1.3v3.9
		c0,0.5,0.1,0.6,0.5,0.6h0.5c0.2,0,0.2,0.1,0.2,0.2v0.3c0,0.1,0,0.2-0.1,0.2c-0.1,0-0.6-0.1-1.7-0.1c-1,0-1.6,0.1-1.7,0.1
		c-0.1,0-0.1-0.1-0.1-0.2v-0.3c0-0.1,0-0.2,0.2-0.2h0.6c0.2,0,0.4-0.1,0.4-0.4v-4.4c0-0.6-0.3-0.9-0.8-1.1l-0.2-0.1
		c-0.1-0.1-0.2-0.1-0.2-0.2v-0.1c0-0.1,0.1-0.2,0.2-0.2l1.6-0.9c0.2-0.1,0.3-0.1,0.3-0.1c0.1,0,0.1,0.1,0.2,0.2l0.1,1.2h0
		c0.6-0.7,1.7-1.4,2.6-1.4c0.6,0,1.2,0.1,1.6,0.4c0.6,0.4,1,1.3,1,1.8V95.7z"/>
	<path fill="#FFFFFF" d="M278.4,91.7c0,0.2-0.1,0.5-0.1,0.9c0,1.9,1.2,3.3,2.7,3.3c1.2,0,2-0.7,2.3-1.3c0-0.1,0.1-0.1,0.2-0.1
		l0.2,0.1c0.1,0,0.1,0.1,0,0.3c-0.3,0.8-1.3,2.1-3,2.1c-1.1,0-2.3-0.3-3-1.3c-0.7-1-0.8-1.7-0.8-3c0-0.7,0.2-2,1.2-3
		c0.8-0.8,1.8-1,2.7-1c2.2,0,2.8,2.1,2.8,2.8c0,0.3-0.2,0.3-0.5,0.3H278.4z M281.5,91.1c0.4,0,0.5-0.1,0.5-0.3
		c0-0.4-0.2-1.7-1.5-1.7c-0.8,0-1.6,0.6-2,2H281.5z"/>
	<path fill="#FFFFFF" d="M286.5,91.7c0,0.2-0.1,0.5-0.1,0.9c0,1.9,1.2,3.3,2.7,3.3c1.2,0,2-0.7,2.3-1.3c0-0.1,0.1-0.1,0.2-0.1
		l0.2,0.1c0.1,0,0.1,0.1,0,0.3c-0.3,0.8-1.3,2.1-3,2.1c-1.1,0-2.3-0.3-3-1.3c-0.7-1-0.8-1.7-0.8-3c0-0.7,0.2-2,1.2-3
		c0.8-0.8,1.8-1,2.7-1c2.2,0,2.8,2.1,2.8,2.8c0,0.3-0.2,0.3-0.5,0.3H286.5z M289.6,91.1c0.4,0,0.5-0.1,0.5-0.3
		c0-0.4-0.2-1.7-1.5-1.7c-0.8,0-1.6,0.6-2,2H289.6z"/>
	<path fill="#FFFFFF" d="M294.3,91.7c0-1-0.2-1.2-0.7-1.4l-0.4-0.2c-0.1,0-0.2-0.1-0.2-0.1v-0.1c0-0.1,0-0.1,0.2-0.2l1.9-1
		c0.1-0.1,0.2-0.1,0.3-0.1c0.1,0,0.1,0.1,0.1,0.2l0.1,1.3h0.1c0.6-0.9,1.5-1.7,2.3-1.7c0.6,0,1,0.4,1,0.8c0,0.6-0.5,0.9-0.8,0.9
		c-0.2,0-0.4-0.1-0.6-0.2c-0.2-0.1-0.4-0.2-0.6-0.2c-0.3,0-0.8,0.2-1.1,0.8c-0.1,0.2-0.2,0.6-0.2,0.6v4c0,0.6,0.1,0.8,0.5,0.8h0.9
		c0.1,0,0.1,0.1,0.1,0.2v0.3c0,0.1,0,0.2-0.1,0.2c-0.1,0-1-0.1-2-0.1c-1.2,0-2,0.1-2.1,0.1c-0.1,0-0.1,0-0.1-0.2v-0.3
		c0-0.1,0-0.2,0.2-0.2h0.7c0.3,0,0.4-0.1,0.4-0.4c0-0.6,0-1.3,0-2.3V91.7z"/>
	<path fill="#FFFFFF" d="M301.1,91.2c0-0.6-0.1-1-1.1-1.1c-0.1,0-0.2-0.1-0.2-0.1v-0.2c0-0.1,0-0.1,0.1-0.1c0.6-0.2,1.3-0.5,2.1-0.9
		c0.2-0.1,0.2-0.1,0.4-0.1c0.1,0,0.1,0.1,0.1,0.2c0,0.3,0,1.5,0,3.1V94c0,0.7,0,1.4,0,1.6c0,0.4,0.1,0.5,0.3,0.5h0.9
		c0.2,0,0.2,0.1,0.2,0.2v0.3c0,0.1,0,0.2-0.2,0.2c-0.2,0-1-0.1-1.8-0.1c-1.1,0-1.8,0.1-2.1,0.1c-0.1,0-0.2,0-0.2-0.2v-0.4
		c0-0.1,0.1-0.2,0.2-0.2h0.9c0.2,0,0.3-0.1,0.3-0.4c0-0.6,0-1.2,0-1.7V91.2z M300.2,85.4c0-0.5,0.4-1,1.2-1c0.7,0,1,0.5,1,0.9
		c0,0.5-0.3,1-1.1,1C300.8,86.4,300.2,86.1,300.2,85.4z"/>
	<path fill="#FFFFFF" d="M312.7,95.7c0,0.3,0.2,0.4,0.4,0.4h0.6c0.2,0,0.2,0.1,0.2,0.2v0.3c0,0.1,0,0.2-0.2,0.2
		c-0.1,0-0.7-0.1-1.8-0.1c-1,0-1.6,0.1-1.7,0.1c-0.1,0-0.2-0.1-0.2-0.2v-0.3c0-0.1,0.1-0.2,0.2-0.2h0.6c0.2,0,0.4-0.1,0.4-0.4
		c0-0.5,0-1.1,0-1.6v-2.5c0-0.8,0-1.3-0.6-1.7c-0.5-0.3-0.9-0.3-1.4-0.3c-0.3,0-1,0.1-1.5,0.7c-0.4,0.4-0.4,0.9-0.4,1.3v3.9
		c0,0.5,0.1,0.6,0.5,0.6h0.5c0.2,0,0.2,0.1,0.2,0.2v0.3c0,0.1,0,0.2-0.1,0.2c-0.1,0-0.6-0.1-1.7-0.1c-1,0-1.6,0.1-1.7,0.1
		c-0.1,0-0.1-0.1-0.1-0.2v-0.3c0-0.1,0-0.2,0.2-0.2h0.6c0.2,0,0.4-0.1,0.4-0.4v-4.4c0-0.6-0.3-0.9-0.8-1.1l-0.2-0.1
		C305,90.1,305,90,305,90v-0.1c0-0.1,0.1-0.2,0.2-0.2l1.6-0.9c0.2-0.1,0.3-0.1,0.3-0.1c0.1,0,0.1,0.1,0.2,0.2l0.1,1.2h0
		c0.6-0.7,1.7-1.4,2.6-1.4c0.6,0,1.2,0.1,1.6,0.4c0.6,0.4,1,1.3,1,1.8V95.7z"/>
	<path fill="#FFFFFF" d="M315.5,101.3c-0.7-0.4-1-0.9-1-1.5c0-1.1,1.1-1.9,2-2.3v-0.1c-0.8-0.2-1.3-0.8-1.3-1.3c0-0.9,1-1.6,1.7-1.8
		v0c-0.7-0.3-1.8-1.2-1.8-2.9c0-1.2,1.1-2.8,3.2-2.8c1.4,0,2.2,0.9,2.4,1.1c0.5-0.4,1.2-0.7,1.8-0.7c0.6,0,0.9,0.4,0.9,0.8
		c0,0.4-0.3,0.7-0.7,0.7c-0.3,0-0.5-0.2-0.7-0.3c-0.1-0.1-0.2-0.2-0.4-0.2c-0.1,0-0.4,0-0.6,0.1c0.2,0.4,0.3,0.8,0.3,1.4
		c0,0.7-0.2,1.5-0.7,2.1c-0.5,0.6-1.6,1-2.2,1c-0.4,0-0.7,0-1-0.1c-0.4,0.2-1,0.5-1,1.1c0,0.8,1,0.7,2.2,0.6
		c1.6-0.1,2.5,0.1,3.3,0.7c0.8,0.6,0.9,1.4,0.9,1.8c0,0.9-0.3,1.6-1.3,2.3c-0.5,0.4-1.6,0.9-3.2,0.9
		C317.5,101.9,316.4,101.8,315.5,101.3z M321.8,99.4c0-1.1-0.9-2-2.8-1.8l-1.8,0.1c-0.6,0.2-1.5,0.8-1.5,1.8c0,0.5,0.4,1,0.7,1.3
		c0.6,0.4,1.3,0.5,2.7,0.5C319.8,101.3,321.9,100.8,321.8,99.4z M320,91.3c0-0.8-0.2-1.3-0.5-1.7c-0.2-0.2-0.6-0.4-0.9-0.4
		c-0.4,0-0.9,0.1-1.3,0.5c-0.6,0.6-0.7,1.5-0.7,2.2c0,0.6,0.2,1.2,0.6,1.7c0.3,0.3,0.7,0.5,1.1,0.5C319.6,94.1,320,92.5,320,91.3z"
		/>
</g>
</svg>
